<svg xmlns="http://www.w3.org/2000/svg" viewBox="0 0 2034.24 640.06"><defs><style>.cls-1{fill:#fff;}</style></defs><g id="Calque_2" data-name="Calque 2"><g id="Calque_2-2" data-name="Calque 2"><path d="M719.85,292.86H635.17L640.46,254h-1.17a120.07,120.07,0,0,1-14.41,16.47,97.42,97.42,0,0,1-20,14.7A120.69,120.69,0,0,1,579.3,295.8a106.69,106.69,0,0,1-30,4.12q-33.51,0-52.92-10.3T468.16,261.1q-8.82-18.23-9.41-42.93a324.71,324.71,0,0,1,3.53-53.51L484.63,7.06h88.21l-20,140q-1.76,12.35-2.94,25.58a70.38,70.38,0,0,0,1.77,24.4,34.92,34.92,0,0,0,11.17,18.23q8.22,7.07,25.29,7.06t28.52-6.17a51.92,51.92,0,0,0,18.52-16.47,81.51,81.51,0,0,0,10.88-23.23,169.62,169.62,0,0,0,5.59-27l20-142.31h88.21Z"/><path d="M1396.7,243.46a168.54,168.54,0,0,1-59.1,41.75q-34.39,14.7-69.09,14.71-32.94,0-60.58-10.59T1161.77,259q-18.52-19.7-27-47.33T1130.9,150q4.69-34.09,20.87-61.75a174.1,174.1,0,0,1,40.29-47.34,177.13,177.13,0,0,1,54.69-30.28A192.65,192.65,0,0,1,1310.26,0q30.57,0,54.1,10.59a95.72,95.72,0,0,1,38.22,30.28q14.7,19.71,20.29,47.34t.88,61.75l-4.11,27.64H1215q1.77,25.29,17.35,40.28t41.46,15q21.75,0,37.93-9.7a126.85,126.85,0,0,0,29.7-25Zm-57-125.84q3.52-22.35-9.41-38.23t-37-15.88a70.64,70.64,0,0,0-26.46,4.71,75.83,75.83,0,0,0-20.58,12,67.8,67.8,0,0,0-14.7,17.06,66.81,66.81,0,0,0-8.24,20.29Z"/><path d="M58.22,216.65H219.35a271.84,271.84,0,0,1,59.39,6.18q27.64,6.16,47.05,20.58t28.81,38.81q9.4,24.4,4.12,60.87-6.48,44.1-33.52,75t-72.33,39.1L334,633h-110L160,466.58H114.67L91.74,633H0ZM125.85,389H180q12.35,0,26.17-.89a88.44,88.44,0,0,0,25.58-5.29A53.71,53.71,0,0,0,252.28,369q8.82-9.4,11.17-26.46,2.35-15.88-2.94-25.29a36,36,0,0,0-14.7-14.41A66.54,66.54,0,0,0,223.76,296a181.74,181.74,0,0,0-25-1.76h-60Z"/><path d="M379.3,490.1Q384,456,400.18,428.36A173.74,173.74,0,0,1,440.46,381a177.36,177.36,0,0,1,54.69-30.29,192.64,192.64,0,0,1,63.51-10.58q32.93,0,60.57,10.58T665.69,381A117.72,117.72,0,0,1,693,428.36q8.52,27.64,3.82,61.74t-21.16,61.75a176.07,176.07,0,0,1-95.27,77.62,192.74,192.74,0,0,1-63.51,10.59q-32.94,0-60.57-10.59t-46.17-30.28q-18.53-19.7-27.05-47.34T379.3,490.1Zm88.21,0q-4.71,32.36,10.88,52.34t49.1,20q33.53,0,55-20t26.17-52.34q4.7-32.33-11.18-52.34t-49.39-20q-33.52,0-54.69,20T467.51,490.1Z"/><path d="M1082.68,81.74q-.59-24.69-9.4-42.93t-28.23-28.52Q1025.64,0,992.12,0a106.79,106.79,0,0,0-30,4.12A113.63,113.63,0,0,0,936.85,14.7a109.68,109.68,0,0,0-20,14.71,88.22,88.22,0,0,0-14.11,16.46h-1.18l5.29-38.81H822.17L781,268.68,779,280.94v0l-1.93,12.25-8.53,54.13h0L746.24,504.81a324.57,324.57,0,0,0-3.52,53.51q.57,24.7,9.41,42.93t28.22,28.52q19.41,10.28,52.93,10.29a106.79,106.79,0,0,0,30-4.12,119.86,119.86,0,0,0,25.58-10.58,97.24,97.24,0,0,0,20-14.7,120,120,0,0,0,14.41-16.47h1.18L919.14,633h84.68l40-285.8h0l35.36-211.94A325.79,325.79,0,0,0,1082.68,81.74ZM930,516.57a82,82,0,0,1-10.88,23.22,51.85,51.85,0,0,1-18.53,16.47q-11.46,6.18-28.52,6.18t-25.29-7.06a35.13,35.13,0,0,1-11.17-18.23,70.45,70.45,0,0,1-1.76-24.41q1.17-13.23,2.94-25.58l20-140h0L866.05,293l2.09-12.25v0l2.1-12.25,20.15-118a193.69,193.69,0,0,1,5.29-27,76,76,0,0,1,10.59-23.23A51.83,51.83,0,0,1,924.79,83.8q11.48-6.18,28.52-6.17t25.29,7.05a35.3,35.3,0,0,1,11.17,18.23,70.73,70.73,0,0,1,1.76,24.41q-1.17,13.23-2.94,25.58l-33,194.44h0l-20,142.18A169.62,169.62,0,0,1,930,516.57Z"/><path d="M1343.12,583.61a168.8,168.8,0,0,1-59.1,41.75q-34.39,14.68-69.09,14.7-32.94,0-60.57-10.59t-46.17-30.28q-18.53-19.7-27-47.34t-3.82-61.75q4.7-34.1,20.88-61.74A173.74,173.74,0,0,1,1138.48,381a177.36,177.36,0,0,1,54.69-30.29,192.64,192.64,0,0,1,63.51-10.58q30.57,0,54.1,10.58A95.83,95.83,0,0,1,1349,381q14.7,19.71,20.29,47.34t.89,61.74l-4.12,27.64H1161.41q1.77,25.29,17.35,40.28t41.46,15q21.75,0,37.93-9.7a126.9,126.9,0,0,0,29.7-25Zm-57-125.85q3.54-22.35-9.41-38.22t-37-15.88a70.85,70.85,0,0,0-26.47,4.7,75.85,75.85,0,0,0-20.58,12.06,67.75,67.75,0,0,0-14.7,17.05,66.81,66.81,0,0,0-8.24,20.29Z"/><path d="M1412.51,582.43a63.39,63.39,0,0,1,7.35-21.17,66.73,66.73,0,0,1,13.82-17.35,61.53,61.53,0,0,1,18.82-11.47,59.81,59.81,0,0,1,21.76-4.11q22.34,0,35.87,15.87t10.58,38.23a63.24,63.24,0,0,1-7.35,21.17A63.89,63.89,0,0,1,1499.25,621a66.2,66.2,0,0,1-18.82,11.46,57.37,57.37,0,0,1-21.46,4.12,50.89,50.89,0,0,1-20.59-4.12A41.82,41.82,0,0,1,1422.8,621a48,48,0,0,1-10.29-38.52Z"/><path d="M1638.32,417.77H1580.1l10-70.57h58.22l7.06-50.57a277.15,277.15,0,0,1,10.29-44.4,101.77,101.77,0,0,1,20.87-36.75q14.12-15.89,37.35-25t59.1-9.11q13.52,0,26.46,1.17a163.4,163.4,0,0,1,24.7,4.12l-14.7,74.68a89.56,89.56,0,0,0-13.24-4.41,63.19,63.19,0,0,0-14.4-1.47q-21.18,0-32.93,9.12T1743,301.92l-6.47,45.28h65.27l-10,70.57h-65.28l-30,215.23h-88.21Z"/><path d="M1832.54,341.49h88.21l-6.47,45.87h1.17q17.65-26.46,38.82-39.69t50.57-13.24q7.64,0,15.29.59a77.06,77.06,0,0,1,14.11,2.35l-11.17,80.57a136.67,136.67,0,0,0-18.23-4.41,114.57,114.57,0,0,0-18.82-1.47q-25.29,0-41.16,7.05a62.31,62.31,0,0,0-25.29,19.71,92.17,92.17,0,0,0-14.41,30.28,288.4,288.4,0,0,0-7.94,38.81l-16.46,119.38h-88.21Z"/><polygon class="cls-1" points="787.29 268.68 787.29 280.96 779.02 280.96 779.02 280.94 780.95 268.68 787.29 268.68"/><rect x="787.27" y="268.68" width="12.27" height="12.27"/><rect class="cls-1" x="799.53" y="268.68" width="12.27" height="12.27"/><rect x="811.79" y="268.68" width="12.27" height="12.27"/><rect class="cls-1" x="823.97" y="268.68" width="12.27" height="12.27"/><rect x="836.23" y="268.68" width="12.27" height="12.27"/><rect class="cls-1" x="787.27" y="280.94" width="12.27" height="12.27"/><rect x="799.53" y="280.94" width="12.27" height="12.27"/><polygon points="787.33 280.94 787.33 293.21 777.09 293.21 779.02 280.96 779.02 280.94 787.33 280.94"/><rect class="cls-1" x="811.78" y="280.94" width="12.27" height="12.27"/><rect x="824.04" y="280.94" width="12.27" height="12.27"/><rect class="cls-1" x="836.23" y="280.94" width="12.27" height="12.27"/><rect class="cls-1" x="848.69" y="268.51" width="12.27" height="12.27"/><polygon points="870.24 268.51 868.14 280.76 868.14 280.79 860.96 280.79 860.96 268.51 870.24 268.51"/><rect x="848.76" y="280.76" width="12.27" height="12.27"/><polygon class="cls-1" points="868.14 280.76 868.14 280.79 866.05 293.04 860.95 293.04 860.95 280.76 868.14 280.76"/></g></g></svg>